<svg width="558" height="185" viewBox="0 0 558 185" fill="none" xmlns="http://www.w3.org/2000/svg">
<g clip-path="url(#clip0_93_193)">
<g clip-path="url(#clip1_93_193)">
<g clip-path="url(#clip2_93_193)">
<g clip-path="url(#clip3_93_193)">
<g clip-path="url(#clip4_93_193)">
<g clip-path="url(#clip5_93_193)">
<g clip-path="url(#clip6_93_193)">
<g clip-path="url(#clip7_93_193)">
<path d="M0.0186768 128.078V109.103L37.2055 62.8056L36.6364 61.6671H6.65919L3.81326 33.2054H89.9502V52.1799L53.3325 98.4777L53.9017 99.6161H91.0886V128.078H0.0186768ZM142.315 95.8212V102.462C146.11 102.842 149.905 103.032 153.699 103.032C165.462 103.032 177.352 101.134 189.368 97.3392L193.922 125.232C179.755 129.027 165.715 130.924 151.802 130.924C134.094 130.924 121.281 126.775 113.363 118.477C105.47 110.204 101.524 97.5922 101.524 80.6416C101.524 63.6911 105.47 51.0667 113.363 42.7685C121.281 34.4956 134.056 30.3592 151.688 30.3592C169.345 30.3592 181.526 32.7626 188.23 37.5695C194.934 42.3764 198.285 51.3577 198.285 64.5133C198.285 75.645 194.263 83.6396 186.219 88.4971C178.199 93.3799 163.565 95.8212 142.315 95.8212ZM142.315 66.0313V73.8108H150.094C154.648 73.8108 157.962 73.3301 160.036 72.3688C162.136 71.4327 163.186 69.2569 163.186 65.8415V58.062H155.407C150.853 58.062 147.527 58.5427 145.427 59.504C143.353 60.4401 142.315 62.6159 142.315 66.0313ZM212.515 33.2054H231.488L240.974 42.6926C252.738 34.4703 265.386 30.3592 278.92 30.3592C287.774 30.3592 294.731 32.282 299.79 36.1275C304.85 39.9983 307.38 45.3491 307.38 52.1799V128.078H269.434V61.6671H263.552C259.252 61.6671 255.988 62.1352 253.762 63.0713C251.561 64.0326 250.461 65.968 250.461 68.8774V128.078H212.515V33.2054ZM363.312 128.078H325.366V37.949L363.312 33.2054V128.078ZM327.567 27.1335C324.708 24.9831 323.279 21.0617 323.279 15.3693C323.279 9.67699 324.708 5.69236 327.567 3.41542C330.4 1.13848 336.029 0 344.453 0C352.851 0 358.48 1.13848 361.338 3.41542C364.172 5.69236 365.588 9.67699 365.588 15.3693C365.588 21.0617 364.172 24.9831 361.338 27.1335C358.48 29.284 352.851 30.3592 344.453 30.3592C336.029 30.3592 330.4 29.284 327.567 27.1335ZM386.079 57.6825H376.593V33.2054H386.079V18.0258L424.025 8.53853V33.2054H437.116V57.6825H424.025V100.944C427.313 101.577 431.045 102.02 435.219 102.273L433.511 130.165C416.183 130.165 404.925 129.216 399.74 127.319C393.289 125.042 389.241 122.006 387.597 118.211C386.585 115.934 386.079 113.278 386.079 110.242V57.6825Z" fill="#FA0047"/>
</g>
<g clip-path="url(#clip8_93_193)">
<path d="M494.942 21.8234H505.137C503.971 21.3165 503.091 20.4085 502.58 19.1305C501.95 17.5244 501.846 15.2668 504.587 13.2487C504.461 12.6766 504.483 12.1604 504.427 11.61C503.957 11.6566 503.418 11.8728 502.776 12.3439L501.72 13.0886L500.779 12.2288C500.024 11.5291 499.265 11.1513 498.636 11.1513C498.46 11.1508 498.286 11.1861 498.125 11.2551C497.963 11.324 497.818 11.4252 497.697 11.5525C497.411 11.8152 497.146 12.2972 497.031 12.745C496.929 13.1477 496.952 13.6405 497.835 14.6372L498.844 15.7613L497.767 16.8278C496.114 18.4635 495.194 20.1053 494.942 21.8234ZM494.942 21.8234H505.137H494.942Z" fill="#111111"/>
<path fill-rule="evenodd" clip-rule="evenodd" d="M507.783 9.79712C507.83 9.2234 507.774 8.67301 507.74 8.13506C507.601 8.59372 507.578 9.12079 507.545 9.62454C507.625 9.70539 507.704 9.70539 507.783 9.79712ZM506.386 3.99778C505.756 3.03381 504.988 2.13981 503.865 1.3733C502.518 0.443051 500.91 -0.0368866 499.273 0.00221272C497.636 0.041312 496.054 0.597443 494.752 1.59097C493.863 2.25998 493.088 3.06919 492.459 3.98689C492.975 4.20456 493.513 4.37559 493.984 4.69898C495.399 5.66667 496.565 6.95479 497.387 8.45845C498.844 8.02156 500.425 8.04643 501.961 9.10058C502.855 8.63103 503.704 8.40092 504.529 8.3776C504.828 6.78239 505.377 5.29136 506.386 3.99778Z" fill="#111111"/>
<path fill-rule="evenodd" clip-rule="evenodd" d="M527.557 9.09902C528.508 8.59371 529.488 8.26099 530.298 8.33096C531.108 8.40092 531.869 9.21407 531.869 9.21407C531.97 6.4279 530.918 4.29629 528.567 2.67932C526.411 1.20072 523.409 1.26913 521.321 2.85035C521.276 2.88455 521.254 2.91876 521.22 2.95452C522.677 4.39891 523.465 6.15271 523.891 8.08997C525.193 7.98819 526.49 8.34515 527.557 9.09902ZM520.175 15.5871C519.625 14.704 519.155 13.4306 519.558 11.9412C519.811 10.9828 520.314 10.1088 521.015 9.40842C520.785 7.24261 519.774 5.48881 517.794 4.1346C515.626 2.64511 512.634 2.72441 510.549 4.31651C507.579 6.57561 506.743 9.4986 507.946 13.4882L508.302 14.704L507.213 15.3337C505 16.6055 505.311 17.386 505.538 17.9582C505.837 18.7371 506.709 19.4026 508.851 18.9439L510.227 18.6454L510.675 19.9747C511.006 20.9154 511.454 21.1455 511.889 21.2372C512.326 21.3398 512.715 21.4891 513.607 20.6075L514.662 19.5876L515.777 20.5624C516.36 21.0895 516.921 21.3647 517.347 21.3647C517.358 21.3647 517.369 21.3398 517.38 21.3398C517.677 19.3466 518.594 17.4218 520.175 15.5871ZM545.176 17.2259C545.05 16.8263 544.202 15.9805 543.582 15.7877C542.962 15.5949 542.023 15.6447 542.023 15.6447L542.368 14.1769C543.285 10.1423 542.323 7.32035 539.341 5.28203C537.852 4.24965 536.03 4.24965 534.31 4.69743C535.066 6.50875 535.285 8.57195 534.941 10.8995C536.317 11.1513 536.97 11.851 537.566 12.448C538.231 13.1119 538.927 14.2018 538.906 15.783C541.073 16.8838 541.805 18.3407 542.012 19.6358L542.298 19.6824C543.881 19.9576 545.003 19.5783 545.256 18.5925C545.348 18.2116 545.312 17.6612 545.176 17.2259Z" fill="#111111"/>
<path d="M538.906 20.8485C538.997 20.3557 539.226 19.2098 536.636 18.2567L535.318 17.7638L535.638 16.3878C535.877 15.4254 535.613 15.001 535.305 14.6791C534.847 14.2096 534.319 14.1179 533.519 14.2904L532.073 14.589L531.659 13.1679C531.064 11.1498 529.987 11.1731 528.382 12.3423L527.327 13.087L526.375 12.2272C525.62 11.5276 524.863 11.1498 524.233 11.1498C524.057 11.1492 523.884 11.1845 523.722 11.2535C523.561 11.3225 523.415 11.4237 523.294 11.5509C523.017 11.8137 522.744 12.2957 522.629 12.7434C522.526 13.1461 522.548 13.639 523.442 14.6356L524.449 15.7597L523.372 16.8263C521.714 18.465 520.792 20.1069 520.538 21.8234H538.32C538.761 21.5513 538.847 21.1735 538.906 20.8485ZM485.741 21.8234H480.916C473.808 21.8234 468.043 27.5776 468.043 34.6861L480.928 118.05C480.928 122.108 482.809 125.725 485.743 128.085L485.741 21.8234ZM496.734 21.8234H507.715V130.924H496.734V21.8234ZM544.98 21.8234H540.694V127.606C542.035 126.402 543.108 124.929 543.843 123.282C544.578 121.636 544.958 119.853 544.958 118.05L557.841 34.6861C557.843 27.5776 552.077 21.8234 544.98 21.8234Z" fill="#111111"/>
<path d="M518.709 21.8234H529.711V130.924H518.709V21.8234Z" fill="#111111"/>
<path d="M493.95 11.9412C494.11 11.3566 494.511 10.9212 494.831 10.4159C494.251 9.1567 493.335 8.08184 492.184 7.30946C490.029 5.84174 487.025 5.91015 484.952 7.49292C481.971 9.76291 481.146 12.6859 482.338 16.6879L482.704 17.8913L481.615 18.5226C479.403 19.785 479.712 20.5749 479.932 21.1486C480.03 21.3989 480.194 21.6321 480.431 21.8249H491.748C491.947 19.6498 492.872 17.5664 494.579 15.5887C494.042 14.704 493.56 13.4306 493.95 11.9412Z" fill="#111111"/>
</g>
</g>
</g>
<g clip-path="url(#clip9_93_193)">
<g clip-path="url(#clip10_93_193)">
<path d="M0.102861 165.119L0.0276031 164.04C0.529323 163.488 1.33709 163.212 2.45091 163.212C3.56138 163.212 4.35075 163.739 4.81903 164.793C5.75557 163.638 6.8259 163.061 8.03003 163.061C9.88639 163.061 11.3414 163.767 12.395 165.179C13.4486 166.594 13.9754 168.72 13.9754 171.556C13.9754 174.39 13.3315 176.651 12.0438 178.34C10.756 180.029 9.16726 180.874 7.27745 180.874C6.24056 180.874 5.33747 180.573 4.56817 179.971C4.11662 180.657 3.48111 180.999 2.66163 180.999C2.22681 180.999 1.79198 180.911 1.35716 180.733C0.922336 180.56 0.596219 180.381 0.378807 180.197L0.0526891 179.946C0.219929 179.21 0.303549 177.504 0.303549 174.828C0.303549 170.797 0.236653 167.561 0.102861 165.119ZM6.72556 178.064C7.41124 178.064 7.99324 177.646 8.47155 176.81C8.94651 175.973 9.18399 174.752 9.18399 173.147C9.18399 170.337 7.97986 168.698 5.57161 168.23C5.6385 168.899 5.67195 170.237 5.67195 172.244C5.67195 174.251 5.56324 175.99 5.34583 177.462C5.83083 177.863 6.29074 178.064 6.72556 178.064ZM24.8126 173.724C24.8126 176.082 24.2941 177.883 23.2572 179.128C22.2203 180.376 20.9242 180.999 19.3689 180.999C18.2818 180.999 17.3035 180.615 16.4338 179.845C15.9656 179.444 15.5893 178.837 15.305 178.024C15.0207 177.214 14.8785 176.249 14.8785 175.129C14.8785 173.44 15.1963 172.147 15.8318 171.25C16.4673 170.357 17.153 169.818 17.8888 169.635C18.1564 168.815 18.7167 168.238 19.5696 167.903C19.9542 167.77 20.3807 167.703 20.849 167.703C23.4914 167.703 24.8126 169.71 24.8126 173.724ZM18.4658 174.175C18.4658 176.718 18.9173 177.989 19.8204 177.989C20.6232 177.989 21.0246 176.793 21.0246 174.401C21.0246 173.23 20.8356 172.408 20.4576 171.933C20.083 171.454 19.5612 171.215 18.8923 171.215C18.608 171.75 18.4658 172.737 18.4658 174.175ZM29.9803 170.864V178.039C29.9803 178.859 30.0806 179.469 30.2813 179.87C30.181 180.138 29.9 180.392 29.4384 180.633C28.9802 180.877 28.4701 180.999 27.9082 180.999C27.3496 180.999 26.9148 180.827 26.6037 180.483C26.296 180.141 26.1421 179.678 26.1421 179.093V172.72C26.1421 171.332 26.0083 170.178 25.7407 169.258L25.5902 168.782C25.6571 168.698 25.7524 168.589 25.8762 168.455C26.0033 168.322 26.2759 168.146 26.694 167.929C27.1121 167.711 27.5469 167.602 27.9985 167.602C29.0521 167.602 29.6876 168.271 29.905 169.609C30.089 169.091 30.4352 168.643 30.9436 168.265C31.452 167.89 32.146 167.703 33.0257 167.703C33.902 167.703 34.6429 168.032 35.2483 168.691C35.8504 169.354 36.1514 170.262 36.1514 171.416V178.19L36.7033 179.469C36.6331 179.586 36.5411 179.728 36.4274 179.896C36.3103 180.063 36.0511 180.289 35.6497 180.573C35.2483 180.857 34.8219 180.999 34.3703 180.999C32.9989 180.999 32.3133 180.013 32.3133 178.039V173.197C32.3133 172.277 32.146 171.658 31.8115 171.341C31.4771 171.023 30.8666 170.864 29.9803 170.864ZM47.1341 166.498V178.19L47.6609 179.469C47.594 179.586 47.502 179.728 47.3849 179.896C47.2679 180.063 47.0136 180.289 46.6223 180.573C46.2276 180.857 45.8045 180.999 45.353 180.999C44.4164 180.999 43.7893 180.531 43.4715 179.594C42.9363 180.531 42.1503 180.999 41.1134 180.999C40.0765 180.999 39.2403 180.662 38.6048 179.986C37.9693 179.307 37.6516 178.474 37.6516 177.487V173.624C37.6516 171.968 38.1282 170.65 39.0815 169.67C40.0347 168.693 41.2054 168.204 42.5935 168.204C42.8109 168.204 43.045 168.23 43.2959 168.28C43.2625 167.226 43.1119 166.156 42.8444 165.068L42.7189 164.567C42.7858 164.483 42.8828 164.374 43.0099 164.241C43.1337 164.107 43.4046 163.926 43.8227 163.699C44.2408 163.475 44.684 163.362 45.1523 163.362C46.4735 163.362 47.1341 164.408 47.1341 166.498ZM41.2389 171.039V176.082C41.2389 176.734 41.386 177.214 41.6804 177.522C41.9714 177.833 42.5099 178.014 43.2959 178.064V172.595C43.2457 172.143 43.0584 171.804 42.734 171.576C42.4062 171.352 41.9078 171.173 41.2389 171.039ZM57.1935 177.412C57.3775 177.596 57.4695 177.838 57.4695 178.139C57.4695 178.44 57.3909 178.745 57.2337 179.053C57.0731 179.364 56.839 179.665 56.5313 179.956C56.2202 180.25 55.7804 180.498 55.2118 180.698C54.6431 180.899 54.021 180.999 53.3454 180.999C52.6664 180.999 52.0593 180.902 51.5241 180.708C50.9889 180.518 50.4789 180.213 49.9939 179.795C48.9403 178.859 48.4134 177.328 48.4134 175.204C48.4134 173.08 48.773 171.503 49.4921 170.472C50.2113 169.446 51.0308 168.882 51.9506 168.782C52.6195 168.062 53.4273 167.703 54.3739 167.703C55.3171 167.703 56.0864 168.046 56.6818 168.731C57.2738 169.417 57.5698 170.354 57.5698 171.541C57.5698 172.929 57.0597 174.025 56.0396 174.828C55.2034 175.497 54.1999 176.007 53.0293 176.358C53.6146 177.127 54.5846 177.512 55.9392 177.512C56.3239 177.512 56.742 177.479 57.1935 177.412ZM54.0829 172.771C54.0829 171.75 53.4557 171.19 52.2014 171.09V173.348C52.2014 174.1 52.2683 174.702 52.4021 175.154C53.5226 174.535 54.0829 173.741 54.0829 172.771ZM64.3932 178.039V168.506C64.3932 167.117 64.2594 165.963 63.9918 165.043L63.8413 164.567C63.9082 164.483 64.0036 164.374 64.1273 164.241C64.2544 164.107 64.527 163.926 64.9451 163.699C65.3632 163.475 65.798 163.362 66.2496 163.362C67.5708 163.362 68.2314 164.408 68.2314 166.498V178.19L68.7833 179.469C68.7164 179.586 68.6244 179.728 68.5073 179.896C68.3903 180.063 68.131 180.289 67.7297 180.573C67.3283 180.857 66.9018 180.999 66.4503 180.999C65.0789 180.999 64.3932 180.013 64.3932 178.039ZM74.6985 173.624V173.448C74.6985 172.26 74.0379 171.667 72.7168 171.667C71.9642 171.667 71.1781 171.909 70.3587 172.394C70.0911 172.127 69.9573 171.795 69.9573 171.401C69.9573 171.009 70.071 170.605 70.2985 170.186C70.5226 169.768 70.8236 169.37 71.2016 168.992C71.5762 168.618 72.0561 168.308 72.6415 168.064C73.2268 167.823 73.8456 167.703 74.4979 167.703C75.8023 167.703 76.8058 168.113 77.5082 168.932C78.2106 169.752 78.5618 170.922 78.5618 172.444V178.19L79.1137 179.469C79.0468 179.586 78.9548 179.728 78.8377 179.896C78.7207 180.063 78.4614 180.289 78.0601 180.573C77.6587 180.857 77.2406 180.999 76.8058 180.999C75.7187 180.999 75.0581 180.397 74.824 179.193C74.2721 180.397 73.5078 180.999 72.5311 180.999C71.5511 180.999 70.8069 180.693 70.2985 180.081C69.7867 179.472 69.5308 178.675 69.5308 177.688C69.5308 175.129 71.2534 173.774 74.6985 173.624ZM72.6666 176.76C72.6666 177.412 72.8923 177.83 73.3439 178.014C73.4442 178.064 73.5529 178.089 73.67 178.089C74.0045 178.089 74.3473 177.897 74.6985 177.512V174.752C73.3439 175.07 72.6666 175.739 72.6666 176.76ZM89.5996 170.864V178.039C89.5996 178.859 89.7 179.469 89.9007 179.87C89.8003 180.138 89.5193 180.392 89.0578 180.633C88.5995 180.877 88.0894 180.999 87.5275 180.999C86.9689 180.999 86.5341 180.827 86.223 180.483C85.9153 180.141 85.7615 179.678 85.7615 179.093V172.72C85.7615 171.332 85.6277 170.178 85.3601 169.258L85.2096 168.782C85.2765 168.698 85.3718 168.589 85.4956 168.455C85.6227 168.322 85.8952 168.146 86.3133 167.929C86.7314 167.711 87.1663 167.602 87.6178 167.602C88.5878 167.602 89.1982 168.171 89.4491 169.308C90.0177 168.238 90.9827 167.703 92.344 167.703C93.7087 167.703 94.667 168.322 95.2189 169.559C95.4196 169.041 95.7708 168.601 96.2725 168.24C96.7742 167.882 97.4599 167.703 98.3295 167.703C99.1992 167.703 99.935 168.032 100.537 168.691C101.139 169.354 101.44 170.262 101.44 171.416V178.19L101.967 179.469C101.9 179.586 101.808 179.728 101.691 179.896C101.574 180.063 101.318 180.289 100.923 180.573C100.532 180.857 100.111 180.999 99.6591 180.999C98.271 180.999 97.577 180.013 97.577 178.039V173.197C97.577 172.311 97.4264 171.708 97.1254 171.391C96.8244 171.073 96.2976 170.897 95.545 170.864L95.5701 171.416V178.039C95.5701 178.825 95.6704 179.436 95.8711 179.87C95.8209 179.954 95.749 180.058 95.6554 180.182C95.5651 180.309 95.3192 180.476 94.9178 180.683C94.5165 180.894 94.0348 180.999 93.4729 180.999C92.9143 180.999 92.4795 180.824 92.1684 180.473C91.8607 180.121 91.7068 179.661 91.7068 179.093V173.197C91.7068 172.311 91.5563 171.708 91.2553 171.391C90.9543 171.073 90.4024 170.897 89.5996 170.864ZM108.038 173.624V173.448C108.038 172.26 107.377 171.667 106.056 171.667C105.303 171.667 104.517 171.909 103.698 172.394C103.43 172.127 103.297 171.795 103.297 171.401C103.297 171.009 103.409 170.605 103.633 170.186C103.86 169.768 104.161 169.37 104.536 168.992C104.914 168.618 105.395 168.308 105.981 168.064C106.566 167.823 107.185 167.703 107.837 167.703C109.142 167.703 110.145 168.113 110.847 168.932C111.55 169.752 111.901 170.922 111.901 172.444V178.19L112.453 179.469C112.386 179.586 112.294 179.728 112.177 179.896C112.06 180.063 111.801 180.289 111.399 180.573C110.998 180.857 110.58 180.999 110.145 180.999C109.058 180.999 108.397 180.397 108.163 179.193C107.611 180.397 106.845 180.999 105.865 180.999C104.889 180.999 104.144 180.693 103.633 180.081C103.124 179.472 102.87 178.675 102.87 177.688C102.87 175.129 104.593 173.774 108.038 173.624ZM106.006 176.76C106.006 177.412 106.232 177.83 106.683 178.014C106.784 178.064 106.892 178.089 107.009 178.089C107.344 178.089 107.687 177.897 108.038 177.512V174.752C106.683 175.07 106.006 175.739 106.006 176.76ZM118.97 179.494V178.265C118.418 179.001 117.646 179.369 116.652 179.369C115.656 179.369 114.878 179.059 114.319 178.44C113.757 177.822 113.476 177.01 113.476 176.007V173.373C113.476 172.419 113.833 171.494 114.545 170.598C115.254 169.705 115.952 169.133 116.637 168.882C117.356 168.096 118.168 167.703 119.071 167.703C120.158 167.703 121.019 167.987 121.654 168.556C122.206 169.074 122.566 169.534 122.733 169.936L122.834 170.186V178.516C122.834 180.289 122.429 181.657 121.619 182.62C120.807 183.58 119.606 184.06 118.017 184.06C117.181 184.06 116.492 183.923 115.95 183.649C115.405 183.371 115.074 183.07 114.957 182.746C114.839 182.418 114.781 182.159 114.781 181.968C114.781 181.774 114.803 181.548 114.846 181.29C114.886 181.03 115.04 180.765 115.308 180.498C115.876 180.933 116.512 181.15 117.214 181.15C118.385 181.15 118.97 180.598 118.97 179.494ZM117.064 170.914V174.953C117.064 176.224 117.699 176.893 118.97 176.96V171.993C118.736 171.508 118.101 171.148 117.064 170.914ZM126.496 180.999C125.125 180.999 124.439 180.013 124.439 178.039C124.439 173.021 124.498 169.718 124.615 168.129C124.966 167.778 125.526 167.602 126.295 167.602C127.617 167.602 128.277 168.648 128.277 170.738V178.19L128.829 179.469C128.762 179.586 128.67 179.728 128.553 179.896C128.436 180.063 128.177 180.289 127.775 180.573C127.374 180.857 126.948 180.999 126.496 180.999ZM128.378 164.055C128.378 164.747 128.21 165.314 127.876 165.756C127.541 166.201 127.036 166.423 126.361 166.423C125.682 166.423 125.18 166.176 124.855 165.681C124.528 165.189 124.255 164.433 124.038 163.413C124.105 163.296 124.197 163.148 124.314 162.971C124.431 162.797 124.687 162.563 125.081 162.269C125.473 161.978 125.877 161.832 126.295 161.832C127.065 161.832 127.605 162.029 127.916 162.424C128.224 162.816 128.378 163.359 128.378 164.055ZM135.176 173.624V173.448C135.176 172.26 134.515 171.667 133.194 171.667C132.441 171.667 131.655 171.909 130.836 172.394C130.568 172.127 130.435 171.795 130.435 171.401C130.435 171.009 130.547 170.605 130.771 170.186C130.998 169.768 131.299 169.37 131.674 168.992C132.052 168.618 132.533 168.308 133.119 168.064C133.704 167.823 134.323 167.703 134.975 167.703C136.28 167.703 137.283 168.113 137.985 168.932C138.688 169.752 139.039 170.922 139.039 172.444V178.19L139.591 179.469C139.524 179.586 139.432 179.728 139.315 179.896C139.198 180.063 138.939 180.289 138.537 180.573C138.136 180.857 137.718 180.999 137.283 180.999C136.196 180.999 135.535 180.397 135.301 179.193C134.749 180.397 133.983 180.999 133.003 180.999C132.027 180.999 131.282 180.693 130.771 180.081C130.262 179.472 130.008 178.675 130.008 177.688C130.008 175.129 131.731 173.774 135.176 173.624ZM133.144 176.76C133.144 177.412 133.37 177.83 133.821 178.014C133.922 178.064 134.03 178.089 134.147 178.089C134.482 178.089 134.825 177.897 135.176 177.512V174.752C133.821 175.07 133.144 175.739 133.144 176.76ZM154.161 177.512C154.345 177.696 154.437 177.939 154.437 178.24C154.437 178.541 154.378 178.837 154.261 179.128C154.144 179.422 153.957 179.712 153.699 179.996C153.438 180.28 153.062 180.518 152.57 180.708C152.075 180.902 151.515 180.999 150.89 180.999C150.261 180.999 149.679 180.902 149.144 180.708C148.609 180.518 148.098 180.213 147.613 179.795C146.56 178.859 146.033 177.323 146.033 175.189C146.033 173.058 146.398 171.478 147.127 170.447C147.853 169.42 148.675 168.865 149.595 168.782C150.348 168.062 151.142 167.703 151.978 167.703C152.547 167.703 153.107 167.929 153.659 168.38C154.211 168.832 154.487 169.35 154.487 169.936C154.487 170.521 154.283 171.081 153.875 171.616C153.464 172.152 152.932 172.528 152.279 172.745C151.544 171.959 150.724 171.374 149.821 170.989V173.348C149.821 174.936 150.197 176.082 150.95 176.785C151.519 177.32 152.288 177.587 153.258 177.587C153.542 177.587 153.843 177.562 154.161 177.512ZM165.199 173.724C165.199 176.082 164.68 177.883 163.643 179.128C162.607 180.376 161.31 180.999 159.755 180.999C158.668 180.999 157.69 180.615 156.82 179.845C156.352 179.444 155.975 178.837 155.691 178.024C155.407 177.214 155.265 176.249 155.265 175.129C155.265 173.44 155.582 172.147 156.218 171.25C156.853 170.357 157.539 169.818 158.275 169.635C158.543 168.815 159.103 168.238 159.956 167.903C160.34 167.77 160.767 167.703 161.235 167.703C163.878 167.703 165.199 169.71 165.199 173.724ZM158.852 174.175C158.852 176.718 159.304 177.989 160.207 177.989C161.009 177.989 161.411 176.793 161.411 174.401C161.411 173.23 161.223 172.408 160.849 171.933C160.471 171.454 159.947 171.215 159.278 171.215C158.994 171.75 158.852 172.737 158.852 174.175ZM170.366 166.498V168.957C171.052 168.121 171.908 167.703 172.935 167.703C173.965 167.703 174.782 168.032 175.384 168.691C175.986 169.354 176.287 170.262 176.287 171.416V175.33C176.287 176.835 175.735 178.156 174.631 179.293C173.527 180.431 172.223 180.999 170.718 180.999C169.48 180.999 168.472 180.626 167.692 179.88C166.916 179.138 166.528 178.307 166.528 177.387V168.506C166.528 167.117 166.395 165.963 166.127 165.043L165.976 164.567C166.043 164.483 166.139 164.374 166.262 164.241C166.389 164.107 166.662 163.926 167.08 163.699C167.498 163.475 167.933 163.362 168.385 163.362C169.706 163.362 170.366 164.408 170.366 166.498ZM172.423 177.813V173.197C172.423 172.277 172.273 171.662 171.972 171.351C171.671 171.043 171.136 170.889 170.366 170.889V176.082C170.366 177.236 171.052 177.813 172.423 177.813ZM179.949 180.999C178.578 180.999 177.892 180.013 177.892 178.039V170.513L177.34 168.782C177.407 168.698 177.503 168.589 177.626 168.455C177.753 168.322 178.026 168.146 178.444 167.929C178.862 167.711 179.297 167.602 179.749 167.602C180.802 167.602 181.438 168.271 181.655 169.609C182.475 168.338 183.448 167.703 184.575 167.703C185.706 167.703 186.271 168.238 186.271 169.308C186.271 170.245 186.07 171.014 185.669 171.616C185.301 172.152 184.916 172.578 184.515 172.896C183.729 172.194 182.801 171.742 181.73 171.541V178.19L182.282 179.469C182.212 179.586 182.12 179.728 182.006 179.896C181.889 180.063 181.63 180.289 181.229 180.573C180.827 180.857 180.401 180.999 179.949 180.999ZM191.208 173.624V173.448C191.208 172.26 190.547 171.667 189.226 171.667C188.473 171.667 187.687 171.909 186.868 172.394C186.6 172.127 186.467 171.795 186.467 171.401C186.467 171.009 186.58 170.605 186.808 170.186C187.032 169.768 187.333 169.37 187.711 168.992C188.085 168.618 188.565 168.308 189.151 168.064C189.736 167.823 190.355 167.703 191.007 167.703C192.312 167.703 193.315 168.113 194.018 168.932C194.72 169.752 195.071 170.922 195.071 172.444V178.19L195.623 179.469C195.556 179.586 195.464 179.728 195.347 179.896C195.23 180.063 194.971 180.289 194.569 180.573C194.168 180.857 193.75 180.999 193.315 180.999C192.228 180.999 191.567 180.397 191.333 179.193C190.781 180.397 190.017 180.999 189.04 180.999C188.06 180.999 187.316 180.693 186.808 180.081C186.296 179.472 186.04 178.675 186.04 177.688C186.04 175.129 187.763 173.774 191.208 173.624ZM189.176 176.76C189.176 177.412 189.402 177.83 189.853 178.014C189.954 178.064 190.062 178.089 190.179 178.089C190.514 178.089 190.857 177.897 191.208 177.512V174.752C189.853 175.07 189.176 175.739 189.176 176.76ZM207.388 169.584L207.112 169.409C207.497 168.271 208.258 167.703 209.395 167.703C210.148 167.703 210.728 167.924 211.136 168.365C211.548 168.81 211.753 169.451 211.753 170.287V174.878C211.753 175.881 211.36 176.88 210.574 177.873C209.788 178.87 209.069 179.461 208.417 179.645C207.664 180.548 206.862 180.999 206.009 180.999C204.871 180.999 203.963 180.623 203.284 179.87C202.609 179.118 202.271 178.19 202.271 177.086V172.846C202.271 171.458 202.137 170.295 201.869 169.359L201.719 168.907C201.786 168.823 201.881 168.715 202.005 168.581C202.132 168.447 202.405 168.266 202.823 168.039C203.241 167.815 203.676 167.703 204.127 167.703C205.448 167.703 206.109 168.748 206.109 170.839V175.43C206.109 176.952 206.795 177.822 208.166 178.039V172.194C208.166 171.491 208.077 170.909 207.9 170.447C207.726 169.989 207.556 169.701 207.388 169.584ZM215.416 180.999C214.044 180.999 213.359 180.013 213.359 178.039C213.359 173.021 213.417 169.718 213.534 168.129C213.886 167.778 214.446 167.602 215.215 167.602C216.536 167.602 217.197 168.648 217.197 170.738V178.19L217.749 179.469C217.682 179.586 217.59 179.728 217.473 179.896C217.356 180.063 217.097 180.289 216.695 180.573C216.294 180.857 215.867 180.999 215.416 180.999ZM217.297 164.055C217.297 164.747 217.13 165.314 216.796 165.756C216.461 166.201 215.954 166.423 215.275 166.423C214.6 166.423 214.098 166.176 213.77 165.681C213.446 165.189 213.175 164.433 212.957 163.413C213.024 163.296 213.116 163.148 213.233 162.971C213.35 162.797 213.605 162.563 213.996 162.269C214.391 161.978 214.797 161.832 215.215 161.832C215.984 161.832 216.523 162.029 216.831 162.424C217.142 162.816 217.297 163.359 217.297 164.055ZM228.255 166.498V178.19L228.782 179.469C228.715 179.586 228.623 179.728 228.506 179.896C228.389 180.063 228.134 180.289 227.743 180.573C227.348 180.857 226.925 180.999 226.474 180.999C225.537 180.999 224.91 180.531 224.592 179.594C224.057 180.531 223.271 180.999 222.234 180.999C221.197 180.999 220.361 180.662 219.726 179.986C219.09 179.307 218.772 178.474 218.772 177.487V173.624C218.772 171.968 219.249 170.65 220.202 169.67C221.156 168.693 222.326 168.204 223.714 168.204C223.932 168.204 224.166 168.23 224.417 168.28C224.383 167.226 224.233 166.156 223.965 165.068L223.84 164.567C223.907 164.483 224.004 164.374 224.131 164.241C224.254 164.107 224.525 163.926 224.943 163.699C225.362 163.475 225.805 163.362 226.273 163.362C227.594 163.362 228.255 164.408 228.255 166.498ZM222.36 171.039V176.082C222.36 176.734 222.507 177.214 222.801 177.522C223.092 177.833 223.631 178.014 224.417 178.064V172.595C224.367 172.143 224.179 171.804 223.855 171.576C223.527 171.352 223.029 171.173 222.36 171.039ZM234.928 173.624V173.448C234.928 172.26 234.267 171.667 232.946 171.667C232.193 171.667 231.407 171.909 230.588 172.394C230.32 172.127 230.186 171.795 230.186 171.401C230.186 171.009 230.3 170.605 230.528 170.186C230.752 169.768 231.053 169.37 231.431 168.992C231.805 168.618 232.285 168.308 232.871 168.064C233.456 167.823 234.075 167.703 234.727 167.703C236.031 167.703 237.035 168.113 237.737 168.932C238.44 169.752 238.791 170.922 238.791 172.444V178.19L239.343 179.469C239.276 179.586 239.184 179.728 239.067 179.896C238.95 180.063 238.691 180.289 238.289 180.573C237.888 180.857 237.47 180.999 237.035 180.999C235.948 180.999 235.287 180.397 235.053 179.193C234.501 180.397 233.737 180.999 232.76 180.999C231.78 180.999 231.036 180.693 230.528 180.081C230.016 179.472 229.76 178.675 229.76 177.688C229.76 175.129 231.483 173.774 234.928 173.624ZM232.896 176.76C232.896 177.412 233.122 177.83 233.573 178.014C233.673 178.064 233.782 178.089 233.899 178.089C234.234 178.089 234.577 177.897 234.928 177.512V174.752C233.573 175.07 232.896 175.739 232.896 176.76ZM254.57 177.412C254.754 177.596 254.846 177.838 254.846 178.139C254.846 178.44 254.766 178.745 254.605 179.053C254.448 179.364 254.214 179.665 253.903 179.956C253.595 180.25 253.157 180.498 252.588 180.698C252.02 180.899 251.396 180.999 250.717 180.999C250.041 180.999 249.436 180.902 248.901 180.708C248.365 180.518 247.855 180.213 247.37 179.795C246.317 178.859 245.79 177.328 245.79 175.204C245.79 173.08 246.15 171.503 246.869 170.472C247.588 169.446 248.407 168.882 249.327 168.782C249.996 168.062 250.802 167.703 251.745 167.703C252.692 167.703 253.461 168.046 254.053 168.731C254.649 169.417 254.946 170.354 254.946 171.541C254.946 172.929 254.436 174.025 253.416 174.828C252.58 175.497 251.576 176.007 250.406 176.358C250.991 177.127 251.961 177.512 253.316 177.512C253.7 177.512 254.118 177.479 254.57 177.412ZM251.459 172.771C251.459 171.75 250.832 171.19 249.578 171.09V173.348C249.578 174.1 249.645 174.702 249.779 175.154C250.899 174.535 251.459 173.741 251.459 172.771ZM259.984 170.864V178.039C259.984 178.859 260.084 179.469 260.285 179.87C260.184 180.138 259.905 180.392 259.447 180.633C258.985 180.877 258.475 180.999 257.917 180.999C257.355 180.999 256.92 180.827 256.612 180.483C256.301 180.141 256.145 179.678 256.145 179.093V172.72C256.145 171.332 256.012 170.178 255.744 169.258L255.594 168.782C255.66 168.698 255.757 168.589 255.885 168.455C256.008 168.322 256.279 168.146 256.697 167.929C257.115 167.711 257.55 167.602 258.002 167.602C259.055 167.602 259.691 168.271 259.908 169.609C260.092 169.091 260.44 168.643 260.952 168.265C261.46 167.89 262.154 167.703 263.034 167.703C263.91 167.703 264.65 168.032 265.252 168.691C265.854 169.354 266.155 170.262 266.155 171.416V178.19L266.707 179.469C266.64 179.586 266.548 179.728 266.431 179.896C266.314 180.063 266.054 180.289 265.653 180.573C265.252 180.857 264.825 180.999 264.374 180.999C263.002 180.999 262.317 180.013 262.317 178.039V173.197C262.317 172.277 262.149 171.658 261.815 171.341C261.48 171.023 260.87 170.864 259.984 170.864ZM281.583 177.512C281.767 177.696 281.859 177.939 281.859 178.24C281.859 178.541 281.8 178.837 281.683 179.128C281.566 179.422 281.377 179.712 281.116 179.996C280.858 180.28 280.482 180.518 279.987 180.708C279.495 180.902 278.935 180.999 278.306 180.999C277.681 180.999 277.101 180.902 276.565 180.708C276.03 180.518 275.52 180.213 275.035 179.795C273.982 178.859 273.455 177.323 273.455 175.189C273.455 173.058 273.818 171.478 274.544 170.447C275.273 169.42 276.097 168.865 277.017 168.782C277.77 168.062 278.564 167.703 279.4 167.703C279.969 167.703 280.529 167.929 281.081 168.38C281.633 168.832 281.909 169.35 281.909 169.936C281.909 170.521 281.703 171.081 281.292 171.616C280.884 172.152 280.353 172.528 279.701 172.745C278.965 171.959 278.146 171.374 277.243 170.989V173.348C277.243 174.936 277.619 176.082 278.372 176.785C278.94 177.32 279.71 177.587 280.68 177.587C280.964 177.587 281.265 177.562 281.583 177.512ZM287.799 173.624V173.448C287.799 172.26 287.14 171.667 285.822 171.667C285.07 171.667 284.284 171.909 283.464 172.394C283.196 172.127 283.063 171.795 283.063 171.401C283.063 171.009 283.175 170.605 283.399 170.186C283.626 169.768 283.927 169.37 284.302 168.992C284.68 168.618 285.162 168.308 285.747 168.064C286.332 167.823 286.951 167.703 287.603 167.703C288.904 167.703 289.908 168.113 290.614 168.932C291.316 169.752 291.667 170.922 291.667 172.444V178.19L292.219 179.469C292.152 179.586 292.059 179.728 291.938 179.896C291.824 180.063 291.567 180.289 291.165 180.573C290.761 180.857 290.343 180.999 289.911 180.999C288.824 180.999 288.162 180.397 287.924 179.193C287.376 180.397 286.612 180.999 285.632 180.999C284.652 180.999 283.907 180.693 283.399 180.081C282.89 179.472 282.636 178.675 282.636 177.688C282.636 175.129 284.357 173.774 287.799 173.624ZM285.772 176.76C285.772 177.412 285.998 177.83 286.449 178.014C286.55 178.064 286.658 178.089 286.775 178.089C287.11 178.089 287.451 177.897 287.799 177.512V174.752C286.448 175.07 285.772 175.739 285.772 176.76ZM302.725 166.498V178.19L303.252 179.469C303.185 179.586 303.093 179.728 302.976 179.896C302.859 180.063 302.605 180.289 302.213 180.573C301.819 180.857 301.396 180.999 300.944 180.999C300.007 180.999 299.38 180.531 299.063 179.594C298.527 180.531 297.741 180.999 296.704 180.999C295.668 180.999 294.831 180.662 294.196 179.986C293.56 179.307 293.243 178.474 293.243 177.487V173.624C293.243 171.968 293.719 170.65 294.672 169.67C295.626 168.693 296.796 168.204 298.185 168.204C298.402 168.204 298.636 168.23 298.887 168.28C298.854 167.226 298.703 166.156 298.435 165.068L298.31 164.567C298.377 164.483 298.474 164.374 298.601 164.241C298.725 164.107 298.996 163.926 299.414 163.699C299.832 163.475 300.275 163.362 300.743 163.362C302.064 163.362 302.725 164.408 302.725 166.498ZM296.83 171.039V176.082C296.83 176.734 296.977 177.214 297.271 177.522C297.562 177.833 298.101 178.014 298.887 178.064V172.595C298.837 172.143 298.649 171.804 298.325 171.576C297.997 171.352 297.499 171.173 296.83 171.039ZM309.398 173.624V173.448C309.398 172.26 308.737 171.667 307.416 171.667C306.664 171.667 305.878 171.909 305.058 172.394C304.791 172.127 304.657 171.795 304.657 171.401C304.657 171.009 304.769 170.605 304.993 170.186C305.22 169.768 305.521 169.37 305.896 168.992C306.274 168.618 306.756 168.308 307.341 168.064C307.926 167.823 308.545 167.703 309.197 167.703C310.502 167.703 311.505 168.113 312.208 168.932C312.91 169.752 313.261 170.922 313.261 172.444V178.19L313.813 179.469C313.746 179.586 313.654 179.728 313.537 179.896C313.42 180.063 313.161 180.289 312.76 180.573C312.358 180.857 311.94 180.999 311.505 180.999C310.418 180.999 309.758 180.397 309.523 179.193C308.972 180.397 308.206 180.999 307.226 180.999C306.249 180.999 305.505 180.693 304.993 180.081C304.484 179.472 304.23 178.675 304.23 177.688C304.23 175.129 305.953 173.774 309.398 173.624ZM307.366 176.76C307.366 177.412 307.592 177.83 308.043 178.014C308.144 178.064 308.252 178.089 308.369 178.089C308.704 178.089 309.047 177.897 309.398 177.512V174.752C308.043 175.07 307.366 175.739 307.366 176.76ZM324.294 180.999V183.734C323.759 184.102 323.132 184.286 322.413 184.286C321.693 184.286 321.188 184.144 320.897 183.859C320.603 183.575 320.456 183.115 320.456 182.48V170.513L319.904 168.782C319.971 168.698 320.068 168.589 320.195 168.455C320.319 168.322 320.59 168.146 321.008 167.929C321.426 167.711 321.861 167.602 322.312 167.602C323.182 167.602 323.767 168.079 324.068 169.032C324.955 168.146 325.946 167.703 327.043 167.703C328.137 167.703 328.982 168.041 329.577 168.716C330.169 169.395 330.465 170.295 330.465 171.416V174.677C330.465 176.216 329.863 177.654 328.659 178.992C327.455 180.33 326.117 180.999 324.645 180.999H324.294ZM324.294 171.09V177.788C324.545 177.989 324.871 178.089 325.272 178.089C325.674 178.089 326 177.964 326.251 177.713C326.502 177.462 326.627 177.111 326.627 176.659V173.021C326.627 172.135 326.41 171.533 325.975 171.215C325.707 171.048 325.431 170.964 325.147 170.964C324.863 170.964 324.578 171.006 324.294 171.09ZM334.128 180.999C332.756 180.999 332.071 180.013 332.071 178.039V170.513L331.519 168.782C331.586 168.698 331.683 168.589 331.81 168.455C331.934 168.322 332.204 168.146 332.623 167.929C333.041 167.711 333.476 167.602 333.927 167.602C334.981 167.602 335.616 168.271 335.834 169.609C336.653 168.338 337.628 167.703 338.759 167.703C339.886 167.703 340.449 168.238 340.449 169.308C340.449 170.245 340.249 171.014 339.847 171.616C339.479 172.152 339.095 172.578 338.693 172.896C337.907 172.194 336.979 171.742 335.909 171.541V178.19L336.461 179.469C336.394 179.586 336.302 179.728 336.185 179.896C336.068 180.063 335.808 180.289 335.407 180.573C335.006 180.857 334.579 180.999 334.128 180.999ZM350.233 173.724C350.233 176.082 349.714 177.883 348.678 179.128C347.641 180.376 346.345 180.999 344.789 180.999C343.702 180.999 342.724 180.615 341.854 179.845C341.386 179.444 341.01 178.837 340.725 178.024C340.441 177.214 340.299 176.249 340.299 175.129C340.299 173.44 340.617 172.147 341.252 171.25C341.888 170.357 342.573 169.818 343.309 169.635C343.577 168.815 344.137 168.238 344.99 167.903C345.375 167.77 345.801 167.703 346.269 167.703C348.912 167.703 350.233 169.71 350.233 173.724ZM343.886 174.175C343.886 176.718 344.338 177.989 345.241 177.989C346.044 177.989 346.445 176.793 346.445 174.401C346.445 173.23 346.256 172.408 345.878 171.933C345.503 171.454 344.982 171.215 344.313 171.215C344.028 171.75 343.886 172.737 343.886 174.175ZM351.387 182.931C351.303 182.513 351.261 182.153 351.261 181.852C351.261 181.551 351.303 181.272 351.387 181.014C351.471 180.754 351.663 180.514 351.964 180.297C352.265 180.08 352.65 179.971 353.118 179.971C353.586 179.971 354.113 180.121 354.698 180.422C355.284 180.723 355.743 180.874 356.078 180.874C356.864 180.874 357.257 180.381 357.257 179.394V178.215C356.822 179.001 356.053 179.394 354.949 179.394C353.845 179.394 353.004 179.093 352.425 178.491C351.85 177.889 351.562 177.144 351.562 176.258V170.513L351.011 168.782C351.245 168.48 351.616 168.208 352.124 167.964C352.636 167.723 353.135 167.602 353.62 167.602C354.105 167.602 354.523 167.82 354.874 168.255C355.225 168.69 355.401 169.183 355.401 169.735V175.405C355.401 175.99 355.546 176.375 355.837 176.559C356.131 176.743 356.605 176.843 357.257 176.86V170.513L356.68 168.782C356.914 168.48 357.29 168.208 357.809 167.964C358.327 167.723 358.824 167.602 359.299 167.602C359.777 167.602 360.195 167.82 360.553 168.255C360.915 168.69 361.095 169.183 361.095 169.735V178.516C361.095 180.272 360.672 181.607 359.826 182.52C358.983 183.43 357.725 183.885 356.053 183.885C355.116 183.885 354.233 183.726 353.404 183.408C352.578 183.09 351.905 182.931 351.387 182.931ZM371.275 177.412C371.459 177.596 371.551 177.838 371.551 178.139C371.551 178.44 371.472 178.745 371.315 179.053C371.155 179.364 370.921 179.665 370.613 179.956C370.302 180.25 369.862 180.498 369.293 180.698C368.725 180.899 368.102 180.999 367.427 180.999C366.748 180.999 366.141 180.902 365.606 180.708C365.07 180.518 364.56 180.213 364.075 179.795C363.022 178.859 362.495 177.328 362.495 175.204C362.495 173.08 362.855 171.503 363.574 170.472C364.293 169.446 365.112 168.882 366.032 168.782C366.701 168.062 367.509 167.703 368.455 167.703C369.399 167.703 370.168 168.046 370.763 168.731C371.355 169.417 371.651 170.354 371.651 171.541C371.651 172.929 371.141 174.025 370.121 174.828C369.285 175.497 368.281 176.007 367.111 176.358C367.696 177.127 368.666 177.512 370.021 177.512C370.405 177.512 370.824 177.479 371.275 177.412ZM368.164 172.771C368.164 171.75 367.537 171.19 366.283 171.09V173.348C366.283 174.1 366.35 174.702 366.484 175.154C367.604 174.535 368.164 173.741 368.164 172.771ZM380.783 177.512C380.967 177.696 381.059 177.939 381.059 178.24C381.059 178.541 381 178.837 380.883 179.128C380.766 179.422 380.579 179.712 380.321 179.996C380.06 180.28 379.684 180.518 379.192 180.708C378.697 180.902 378.137 180.999 377.511 180.999C376.883 180.999 376.301 180.902 375.765 180.708C375.23 180.518 374.72 180.213 374.235 179.795C373.182 178.859 372.655 177.323 372.655 175.189C372.655 173.058 373.019 171.478 373.749 170.447C374.474 169.42 375.297 168.865 376.217 168.782C376.97 168.062 377.764 167.703 378.6 167.703C379.169 167.703 379.729 167.929 380.281 168.38C380.833 168.832 381.109 169.35 381.109 169.936C381.109 170.521 380.905 171.081 380.497 171.616C380.085 172.152 379.553 172.528 378.901 172.745C378.165 171.959 377.346 171.374 376.443 170.989V173.348C376.443 174.936 376.819 176.082 377.572 176.785C378.14 177.32 378.91 177.587 379.88 177.587C380.164 177.587 380.465 177.562 380.783 177.512ZM390.09 177.512C390.274 177.696 390.365 177.939 390.365 178.24C390.365 178.541 390.307 178.837 390.19 179.128C390.073 179.422 389.884 179.712 389.623 179.996C389.365 180.28 388.989 180.518 388.494 180.708C388.002 180.902 387.442 180.999 386.813 180.999C386.188 180.999 385.608 180.902 385.072 180.708C384.537 180.518 384.027 180.213 383.542 179.795C382.488 178.859 381.962 177.323 381.962 175.189C381.962 173.058 382.325 171.478 383.05 170.447C383.78 169.42 384.604 168.865 385.524 168.782C386.276 168.062 387.071 167.703 387.907 167.703C388.476 167.703 389.036 167.929 389.588 168.38C390.14 168.832 390.416 169.35 390.416 169.936C390.416 170.521 390.21 171.081 389.799 171.616C389.39 172.152 388.86 172.528 388.208 172.745C387.472 171.959 386.653 171.374 385.75 170.989V173.348C385.75 174.936 386.126 176.082 386.879 176.785C387.447 177.32 388.216 177.587 389.186 177.587C389.471 177.587 389.772 177.562 390.09 177.512ZM393.526 180.999C392.155 180.999 391.469 180.013 391.469 178.039C391.469 173.021 391.528 169.718 391.645 168.129C391.996 167.778 392.556 167.602 393.326 167.602C394.647 167.602 395.307 168.648 395.307 170.738V178.19L395.859 179.469C395.792 179.586 395.7 179.728 395.583 179.896C395.466 180.063 395.207 180.289 394.806 180.573C394.404 180.857 393.978 180.999 393.526 180.999ZM395.408 164.055C395.408 164.747 395.241 165.314 394.906 165.756C394.572 166.201 394.065 166.423 393.386 166.423C392.71 166.423 392.208 166.176 391.881 165.681C391.556 165.189 391.285 164.433 391.068 163.413C391.135 163.296 391.227 163.148 391.344 162.971C391.461 162.797 391.715 162.563 392.106 162.269C392.501 161.978 392.908 161.832 393.326 161.832C394.095 161.832 394.633 162.029 394.941 162.424C395.252 162.816 395.408 163.359 395.408 164.055ZM406.742 173.724C406.742 176.082 406.223 177.883 405.186 179.128C404.149 180.376 402.853 180.999 401.298 180.999C400.211 180.999 399.233 180.615 398.363 179.845C397.895 179.444 397.518 178.837 397.234 178.024C396.95 177.214 396.808 176.249 396.808 175.129C396.808 173.44 397.125 172.147 397.761 171.25C398.396 170.357 399.082 169.818 399.818 169.635C400.085 168.815 400.646 168.238 401.499 167.903C401.883 167.77 402.31 167.703 402.778 167.703C405.42 167.703 406.742 169.71 406.742 173.724ZM400.395 174.175C400.395 176.718 400.846 177.989 401.75 177.989C402.552 177.989 402.954 176.793 402.954 174.401C402.954 173.23 402.766 172.408 402.392 171.933C402.014 171.454 401.49 171.215 400.821 171.215C400.537 171.75 400.395 172.737 400.395 174.175ZM411.909 170.864V178.039C411.909 178.859 412.01 179.469 412.21 179.87C412.11 180.138 411.831 180.392 411.372 180.633C410.911 180.877 410.401 180.999 409.842 180.999C409.28 180.999 408.845 180.827 408.538 180.483C408.227 180.141 408.071 179.678 408.071 179.093V172.72C408.071 171.332 407.937 170.178 407.67 169.258L407.519 168.782C407.586 168.698 407.683 168.589 407.81 168.455C407.934 168.322 408.205 168.146 408.623 167.929C409.041 167.711 409.476 167.602 409.928 167.602C410.981 167.602 411.617 168.271 411.834 169.609C412.018 169.091 412.366 168.643 412.878 168.265C413.386 167.89 414.08 167.703 414.96 167.703C415.836 167.703 416.575 168.032 417.177 168.691C417.779 169.354 418.08 170.262 418.08 171.416V178.19L418.632 179.469C418.565 179.586 418.473 179.728 418.356 179.896C418.239 180.063 417.98 180.289 417.579 180.573C417.177 180.857 416.751 180.999 416.299 180.999C414.928 180.999 414.242 180.013 414.242 178.039V173.197C414.242 172.277 414.075 171.658 413.741 171.341C413.406 171.023 412.796 170.864 411.909 170.864Z" fill="#484848"/>
<path d="M402.167 165.612L403.943 162.596" stroke="#484848" stroke-width="2" stroke-linecap="round"/>
</g>
</g>
</g>
</g>
</g>
</g>
</g>
<defs>
<clipPath id="clip0_93_193">
<rect width="557.841" height="184.286" fill="white"/>
</clipPath>
<clipPath id="clip1_93_193">
<rect width="557.841" height="184.286" fill="white"/>
</clipPath>
<clipPath id="clip2_93_193">
<rect width="557.841" height="184.286" fill="white"/>
</clipPath>
<clipPath id="clip3_93_193">
<rect width="557.841" height="184.286" fill="white"/>
</clipPath>
<clipPath id="clip4_93_193">
<rect width="557.841" height="184.286" fill="white"/>
</clipPath>
<clipPath id="clip5_93_193">
<rect width="557.841" height="130.924" fill="white"/>
</clipPath>
<clipPath id="clip6_93_193">
<rect width="557.841" height="130.924" fill="white"/>
</clipPath>
<clipPath id="clip7_93_193">
<rect width="437.135" height="130.924" fill="white"/>
</clipPath>
<clipPath id="clip8_93_193">
<rect width="89.7982" height="130.924" fill="white" transform="translate(468.043)"/>
</clipPath>
<clipPath id="clip9_93_193">
<rect width="418.66" height="24.286" fill="white" transform="translate(0 160)"/>
</clipPath>
<clipPath id="clip10_93_193">
<rect width="418" height="24" fill="white" transform="translate(0.167435 160.112)"/>
</clipPath>
</defs>
</svg>
