<svg width="558" height="129" viewBox="0 0 558 129" fill="none" xmlns="http://www.w3.org/2000/svg">
<g clip-path="url(#clip0_138_74)">
<g clip-path="url(#clip1_138_74)">
<g clip-path="url(#clip2_138_74)">
<g clip-path="url(#clip3_138_74)">
<g clip-path="url(#clip4_138_74)">
<g clip-path="url(#clip5_138_74)">
<g clip-path="url(#clip6_138_74)">
<g clip-path="url(#clip7_138_74)">
<path d="M0.0186768 128.078V109.103L37.2055 62.8056L36.6364 61.6671H6.65919L3.81326 33.2054H89.9502V52.1799L53.3325 98.4777L53.9017 99.6161H91.0886V128.078H0.0186768ZM142.315 95.8212V102.462C146.11 102.842 149.905 103.032 153.699 103.032C165.462 103.032 177.352 101.134 189.368 97.3392L193.922 125.232C179.755 129.027 165.715 130.924 151.802 130.924C134.094 130.924 121.281 126.775 113.363 118.477C105.47 110.204 101.524 97.5922 101.524 80.6416C101.524 63.6911 105.47 51.0667 113.363 42.7685C121.281 34.4956 134.056 30.3592 151.688 30.3592C169.345 30.3592 181.526 32.7626 188.23 37.5695C194.934 42.3764 198.285 51.3577 198.285 64.5133C198.285 75.645 194.263 83.6396 186.219 88.4971C178.199 93.3799 163.565 95.8212 142.315 95.8212ZM142.315 66.0313V73.8108H150.094C154.648 73.8108 157.962 73.3301 160.036 72.3688C162.136 71.4327 163.186 69.2569 163.186 65.8415V58.062H155.407C150.853 58.062 147.527 58.5427 145.427 59.504C143.353 60.4401 142.315 62.6159 142.315 66.0313ZM212.515 33.2054H231.488L240.974 42.6926C252.738 34.4703 265.386 30.3592 278.92 30.3592C287.774 30.3592 294.731 32.282 299.79 36.1275C304.85 39.9983 307.38 45.3491 307.38 52.1799V128.078H269.434V61.6671H263.552C259.252 61.6671 255.988 62.1352 253.762 63.0713C251.561 64.0326 250.461 65.968 250.461 68.8774V128.078H212.515V33.2054ZM363.312 128.078H325.366V37.949L363.312 33.2054V128.078ZM327.567 27.1335C324.708 24.9831 323.279 21.0617 323.279 15.3693C323.279 9.67699 324.708 5.69236 327.567 3.41542C330.4 1.13848 336.029 0 344.453 0C352.851 0 358.48 1.13848 361.338 3.41542C364.172 5.69236 365.588 9.67699 365.588 15.3693C365.588 21.0617 364.172 24.9831 361.338 27.1335C358.48 29.284 352.851 30.3592 344.453 30.3592C336.029 30.3592 330.4 29.284 327.567 27.1335ZM386.079 57.6825H376.593V33.2054H386.079V18.0258L424.025 8.53853V33.2054H437.116V57.6825H424.025V100.944C427.313 101.577 431.045 102.02 435.219 102.273L433.511 130.165C416.183 130.165 404.925 129.216 399.74 127.319C393.289 125.042 389.241 122.006 387.597 118.211C386.585 115.934 386.079 113.278 386.079 110.242V57.6825Z" fill="#FA0047"/>
</g>
<g clip-path="url(#clip8_138_74)">
<path d="M494.942 21.8234H505.137C503.971 21.3165 503.091 20.4086 502.58 19.1305C501.95 17.5244 501.846 15.2669 504.587 13.2488C504.461 12.6766 504.483 12.1604 504.427 11.61C503.957 11.6567 503.418 11.8728 502.776 12.3439L501.72 13.0886L500.779 12.2288C500.024 11.5292 499.265 11.1514 498.636 11.1514C498.46 11.1508 498.286 11.1861 498.125 11.2551C497.963 11.3241 497.818 11.4253 497.697 11.5525C497.411 11.8153 497.146 12.2972 497.031 12.745C496.929 13.1477 496.952 13.6406 497.835 14.6372L498.844 15.7613L497.767 16.8279C496.114 18.4635 495.194 20.1054 494.942 21.8234ZM494.942 21.8234H505.137Z" fill="#111111"/>
<path fill-rule="evenodd" clip-rule="evenodd" d="M507.783 9.79712C507.83 9.2234 507.774 8.67301 507.74 8.13506C507.601 8.59372 507.578 9.12079 507.545 9.62454C507.625 9.70539 507.704 9.70539 507.783 9.79712ZM506.386 3.99778C505.756 3.03381 504.988 2.13981 503.865 1.3733C502.518 0.44305 500.91 -0.0368866 499.273 0.00221272C497.636 0.041312 496.054 0.597443 494.752 1.59097C493.863 2.25998 493.088 3.06919 492.459 3.98689C492.975 4.20456 493.513 4.37559 493.984 4.69898C495.399 5.66667 496.565 6.95479 497.387 8.45845C498.844 8.02156 500.425 8.04643 501.961 9.10058C502.855 8.63103 503.704 8.40092 504.529 8.3776C504.828 6.78239 505.377 5.29136 506.386 3.99778Z" fill="#111111"/>
<path fill-rule="evenodd" clip-rule="evenodd" d="M527.557 9.09897C528.508 8.59367 529.488 8.26095 530.298 8.33091C531.108 8.40088 531.869 9.21403 531.869 9.21403C531.97 6.42786 530.918 4.29625 528.567 2.67927C526.411 1.20068 523.409 1.26909 521.321 2.8503C521.276 2.8845 521.254 2.91871 521.22 2.95447C522.677 4.39886 523.465 6.15266 523.891 8.08992C525.193 7.98814 526.49 8.3451 527.557 9.09897ZM520.175 15.5871C519.625 14.704 519.155 13.4306 519.558 11.9411C519.811 10.9828 520.314 10.1087 521.015 9.40838C520.785 7.24256 519.774 5.48877 517.794 4.13455C515.626 2.64507 512.634 2.72436 510.549 4.31646C507.579 6.57556 506.743 9.49855 507.946 13.4881L508.302 14.704L507.213 15.3337C505 16.6055 505.311 17.386 505.538 17.9581C505.837 18.7371 506.709 19.4025 508.851 18.9439L510.227 18.6453L510.675 19.9747C511.006 20.9153 511.454 21.1454 511.889 21.2372C512.326 21.3398 512.715 21.489 513.607 20.6075L514.662 19.5875L515.777 20.5624C516.36 21.0895 516.921 21.3647 517.347 21.3647C517.358 21.3647 517.369 21.3398 517.38 21.3398C517.677 19.3466 518.594 17.4217 520.175 15.5871ZM545.176 17.2258C545.05 16.8262 544.202 15.9804 543.582 15.7877C542.962 15.5949 542.023 15.6446 542.023 15.6446L542.368 14.1769C543.285 10.1422 542.323 7.3203 539.341 5.28198C537.852 4.2496 536.03 4.24961 534.31 4.69738C535.066 6.50871 535.285 8.5719 534.941 10.8994C536.317 11.1513 536.97 11.8509 537.566 12.448C538.231 13.1119 538.927 14.2018 538.906 15.783C541.073 16.8838 541.805 18.3406 542.012 19.6357L542.298 19.6824C543.881 19.9576 545.003 19.5782 545.256 18.5925C545.348 18.2116 545.312 17.6612 545.176 17.2258Z" fill="#111111"/>
<path d="M538.906 20.8485C538.997 20.3557 539.226 19.2098 536.636 18.2567L535.318 17.7638L535.638 16.3879C535.877 15.4254 535.613 15.001 535.305 14.6791C534.847 14.2096 534.319 14.1179 533.519 14.2904L532.073 14.589L531.659 13.1679C531.064 11.1498 529.987 11.1731 528.382 12.3423L527.327 13.087L526.375 12.2273C525.62 11.5276 524.863 11.1498 524.233 11.1498C524.057 11.1492 523.884 11.1845 523.722 11.2535C523.561 11.3225 523.415 11.4237 523.294 11.5509C523.017 11.8137 522.744 12.2957 522.629 12.7434C522.526 13.1461 522.548 13.639 523.442 14.6356L524.449 15.7597L523.372 16.8263C521.714 18.465 520.792 20.1069 520.538 21.8234H538.32C538.761 21.5513 538.847 21.1735 538.906 20.8485ZM485.741 21.8234H480.916C473.808 21.8234 468.043 27.5776 468.043 34.6861L480.928 118.05C480.928 122.108 482.809 125.725 485.743 128.085L485.741 21.8234ZM496.734 21.8234H507.715V130.924H496.734V21.8234ZM544.98 21.8234H540.694V127.606C542.035 126.402 543.108 124.929 543.843 123.282C544.578 121.636 544.958 119.853 544.958 118.05L557.841 34.6861C557.843 27.5776 552.077 21.8234 544.98 21.8234Z" fill="#111111"/>
<path d="M518.709 21.8234H529.711V130.924H518.709V21.8234Z" fill="#111111"/>
<path d="M493.95 11.9412C494.11 11.3566 494.511 10.9213 494.831 10.416C494.251 9.15676 493.335 8.0819 492.184 7.30952C490.029 5.8418 487.025 5.91022 484.952 7.49298C481.971 9.76297 481.146 12.686 482.338 16.688L482.704 17.8914L481.615 18.5226C479.403 19.7851 479.712 20.5749 479.932 21.1486C480.03 21.399 480.194 21.6322 480.431 21.825H491.748C491.947 19.6498 492.872 17.5664 494.579 15.5887C494.042 14.7041 493.56 13.4307 493.95 11.9412Z" fill="#111111"/>
</g>
</g>
</g>
</g>
</g>
</g>
</g>
</g>
<defs>
<clipPath id="clip0_138_74">
<rect width="557.841" height="129" fill="white"/>
</clipPath>
<clipPath id="clip1_138_74">
<rect width="557.841" height="184.286" fill="white"/>
</clipPath>
<clipPath id="clip2_138_74">
<rect width="557.841" height="184.286" fill="white"/>
</clipPath>
<clipPath id="clip3_138_74">
<rect width="557.841" height="184.286" fill="white"/>
</clipPath>
<clipPath id="clip4_138_74">
<rect width="557.841" height="184.286" fill="white"/>
</clipPath>
<clipPath id="clip5_138_74">
<rect width="557.841" height="130.924" fill="white"/>
</clipPath>
<clipPath id="clip6_138_74">
<rect width="557.841" height="130.924" fill="white"/>
</clipPath>
<clipPath id="clip7_138_74">
<rect width="437.135" height="130.924" fill="white"/>
</clipPath>
<clipPath id="clip8_138_74">
<rect width="89.7982" height="130.924" fill="white" transform="translate(468.043)"/>
</clipPath>
</defs>
</svg>
